<mxfile host="app.diagrams.net" modified="2024-04-04T14:45:08.765Z" agent="Mozilla/5.0 (Windows NT 10.0; Win64; x64) AppleWebKit/537.36 (KHTML, like Gecko) Chrome/123.0.0.0 Safari/537.36" version="24.2.1" etag="oDdnduS1jiNvdacX2YRZ" type="github">
  <diagram name="PÃ¡gina-1" id="L8nleMoTVklFBX3Y1iA6">
    <mxGraphModel>
      <root>
        <mxCell id="0" />
        <mxCell id="1" parent="0" />
      </root>
    </mxGraphModel>
  </diagram>
</mxfile>
